#!OML:ASF H:\ManfredObstacles\Project 1\Capture day 1\Session 1\Male.ASF
:FULLY-SPECIFIED
:DEGREES
515
root -5.57176 16.8531 -11.6625 -40.4451 -85.9515 -307.545
lowerback -9.26277 0.784341 -2.78781
upperback 1.25127 1.43547 -1.24312
thorax 6.48225 0.621398 0.475565
lowerneck -3.5135 9.72367 -4.4932
upperneck -4.39964 13.063 0.309269
head -1.10774 6.57918 0.791227
rclavicle -1.86927e-014 -1.42876e-016
rhumerus -31.9739 -23.0028 -76.4032
rradius 23.1547
rwrist 34.8913
rhand -0.215767 -6.0667
rfingers 7.12502
rthumb 25.3837 -34.397
lclavicle -1.86927e-014 -1.42876e-016
lhumerus -22.9726 6.03266 89.0474
lradius 20.8179
lwrist -28.4526
lhand -14.1547 7.39159
lfingers 7.12502
lthumb 11.98 37.0288
rfemur -22.4198 -14.0948 19.3615
rtibia 24.0902
rfoot -26.2539 -16.2454
rtoes 32.7113
lfemur -9.60903 -4.90495 -6.02572
ltibia 17.326
lfoot 9.477 -3.64278
ltoes 12.8565
516
root -5.55903 16.8512 -11.6005 -30.2595 -85.4969 -317.661
lowerback -9.46727 0.854073 -2.63864
upperback 1.34933 1.51969 -1.18733
thorax 6.70263 0.664083 0.467092
lowerneck -3.74135 9.7778 -4.53041
upperneck -4.14217 13.1542 0.445662
head -1.0043 6.62283 0.857272
rclavicle -1.34261e-014 5.74612e-016
rhumerus -31.6603 -23.4489 -76.1072
rradius 22.993
rwrist 35.3911
rhand -0.246758 -5.86261
rfingers 7.12502
rthumb 25.354 -34.1971
lclavicle -1.34261e-014 5.74612e-016
lhumerus -22.6417 5.12143 89.685
lradius 21.0904
lwrist -27.2917
lhand -14.3121 7.31468
lfingers 7.12502
lthumb 11.8282 36.9606
rfemur -22.3511 -14.0641 19.3212
rtibia 24.017
rfoot -26.4808 -16.8949
rtoes 32.7107
lfemur -10.362 -3.89982 -6.34608
ltibia 17.1193
lfoot 6.19539 -0.44024
ltoes 10.6239
517
root -5.54783 16.8483 -11.5323 -23.962 -84.9288 -323.981
lowerback -9.45259 1.2449 -2.32647
upperback 1.33024 2.0259 -1.57756
thorax 6.68605 0.930978 -0.0425652
lowerneck -3.75394 9.62804 -3.53911
upperneck -3.91847 12.9292 0.384153
head -0.853602 6.49612 0.699327
rclavicle 1.86361e-015 5.06901e-015
rhumerus -31.9444 -25.1168 -75.7502
rradius 22.8501
rwrist 36.092
rhand -0.34996 -5.77366
rfingers 7.12502
rthumb 25.2551 -34.1222
lclavicle 1.86361e-015 5.06901e-015
lhumerus -22.5845 3.1591 90.0183
lradius 21.5404
lwrist -26.2311
lhand -14.1557 7.35863
lfingers 7.12502
lthumb 11.979 36.9959
rfemur -22.218 -14.2979 19.1214
rtibia 23.9963
rfoot -26.7623 -17.2033
rtoes 33.0571
lfemur -11.0471 -2.76711 -7.02351
ltibia 17.0011
lfoot 3.39168 3.46361
ltoes 10.1413
518
root -5.53674 16.8393 -11.4573 -19.828 -84.3104 -328.216
lowerback -9.24437 1.33605 -2.4229
upperback 1.18273 2.14805 -1.61879
thorax 6.40747 0.991833 -0.0204843
lowerneck -3.60895 9.73153 -3.19834
upperneck -3.5842 13.0573 0.356187
head -0.750714 6.55489 0.642217
rclavicle -6.7711e-015 -1.47101e-014
rhumerus -32.0985 -25.6622 -75.2533
rradius 22.5705
rwrist 36.6576
rhand -0.4738 -5.82695
rfingers 7.12502
rthumb 25.1365 -34.1921
lclavicle -6.7711e-015 -1.47101e-014
lhumerus -22.9142 2.38728 90.4748
lradius 21.9887
lwrist -25.4646
lhand -14.0608 7.33978
lfingers 7.12502
lthumb 12.0705 36.9716
rfemur -21.9958 -14.4989 18.789
rtibia 24.0145
rfoot -27.0735 -17.5922
rtoes 33.2054
lfemur -11.6627 -1.53425 -7.95648
ltibia 16.9404
lfoot 1.20898 7.79826
ltoes 11.5632
519
root -5.52658 16.829 -11.3773 -14.1789 -83.8341 -334.007
lowerback -9.19463 1.20148 -2.36657
upperback 1.14839 1.94482 -1.34023
thorax 6.33727 0.891232 0.208798
lowerneck -3.83168 10.0386 -3.61419
upperneck -2.95796 13.4975 0.572738
head -0.574137 6.77605 0.799075
rclavicle -8.7838e-015 -4.22417e-015
rhumerus -31.7297 -25.6497 -74.8608
rradius 22.1688
rwrist 37.4142
rhand -0.510378 -5.76563
rfingers 7.12502
rthumb 25.1014 -34.1357
lclavicle -8.7838e-015 -4.22417e-015
lhumerus -23.1469 2.9428 90.8603
lradius 22.3463
lwrist -25.4031
lhand -13.8841 7.22177
lfingers 7.12502
lthumb 12.2409 36.8435
rfemur -21.7632 -14.3128 18.7329
rtibia 24.1204
rfoot -27.434 -18.3323
rtoes 33.166
lfemur -12.3434 -0.31108 -8.64547
ltibia 16.9883
lfoot -0.41039 11.9975
ltoes 14.2858
520
root -5.51566 16.8225 -11.2898 -8.71115 -83.4491 -339.588
lowerback -9.39838 1.24347 -1.93274
upperback 1.26806 1.95835 -1.26798
thorax 6.59117 0.909714 0.049324
lowerneck -4.15153 10.2274 -3.96382
upperneck -2.60347 13.7823 0.982117
head -0.474406 6.92017 1.00234
rclavicle 5.8393e-015 0
rhumerus -31.2214 -26.3108 -74.724
rradius 21.881
rwrist 38.1861
rhand -0.542875 -5.83637
rfingers 7.12502
rthumb 25.0703 -34.2108
lclavicle 5.8393e-015 0
lhumerus -23.1009 2.55412 91.1922
lradius 22.6684
lwrist -24.8338
lhand -13.8548 7.19916
lfingers 7.12502
lthumb 12.2691 36.8193
rfemur -21.6131 -14.0919 18.8004
rtibia 24.2534
rfoot -27.6616 -19.0174
rtoes 33.0511
lfemur -13.0895 -0.0672927 -9.20599
ltibia 17.1434
lfoot -1.96627 15.8813
ltoes 17.4978
521
root -5.50366 16.8064 -11.1907 -5.33747 -83.088 -343.025
lowerback -9.3535 1.27321 -1.91013
upperback 1.09376 1.97957 -1.09686
thorax 6.37501 0.921005 0.215842
lowerneck -3.94323 10.37 -4.04855
upperneck -2.34124 13.9715 1.03393
head -0.441795 7.01382 1.02632
rclavicle -3.32467e-014 -4.27387e-015
rhumerus -31.1591 -26.1138 -74.4722
rradius 21.7898
rwrist 38.1819
rhand -0.661401 -6.06896
rfingers 7.12502
rthumb 24.9567 -34.4592
lclavicle -3.32467e-014 -4.27387e-015
lhumerus -23.545 1.96459 91.6797
lradius 23.0369
lwrist -24.0548
lhand -13.7201 7.14647
lfingers 7.12502
lthumb 12.399 36.7587
rfemur -21.5261 -14.0424 18.6836
rtibia 24.3621
rfoot -27.7578 -19.4058
rtoes 32.97
lfemur -13.9164 1.69093 -10.1537
ltibia 17.4882
lfoot -2.45673 17.4231
ltoes 17.5096
522
root -5.49149 16.7912 -11.0838 -2.69859 -82.6823 -345.824
lowerback -9.46052 1.37779 -1.77943
upperback 1.13762 2.1048 -1.03316
thorax 6.48249 0.984979 0.230963
lowerneck -3.92747 10.4238 -3.88189
upperneck -2.21285 14.0353 0.820859
head -0.378245 7.04308 0.941656
rclavicle -1.73937e-016 3.47873e-015
rhumerus -30.8592 -26.0646 -74.451
rradius 21.7858
rwrist 37.9787
rhand -0.926405 -6.35373
rfingers 7.12502
rthumb 24.7027 -34.779
lclavicle -1.73937e-016 3.47873e-015
lhumerus -23.6632 1.40999 92.0901
lradius 23.2846
lwrist -23.487
lhand -13.7256 6.92173
lfingers 7.12502
lthumb 12.3937 36.5343
rfemur -21.2986 -14.1533 18.4824
rtibia 24.4229
rfoot -27.818 -19.6704
rtoes 32.831
lfemur -14.4434 2.48442 -11.157
ltibia 17.9272
lfoot -5.11421 19.4695
ltoes 20.8849
523
root -5.4791 16.773 -10.9731 0.343277 -82.2319 -349.108
lowerback -9.53081 1.46356 -1.48248
upperback 1.22611 2.18786 -1.01283
thorax 6.62518 1.03497 0.101246
lowerneck -4.04688 10.4946 -3.66583
upperneck -2.02498 14.1258 0.658724
head -0.275624 7.08492 0.875748
rclavicle -5.44173e-015 -4.87022e-015
rhumerus -30.5306 -26.1111 -74.6028
rradius 21.8419
rwrist 37.8499
rhand -1.18325 -6.65399
rfingers 7.12502
rthumb 24.4566 -35.1127
lclavicle -5.44173e-015 -4.87022e-015
lhumerus -23.7369 1.39857 92.2317
lradius 23.3919
lwrist -23.7688
lhand -13.6751 6.74685
lfingers 7.12502
lthumb 12.4424 36.3565
rfemur -20.9462 -14.0698 18.3183
rtibia 24.4738
rfoot -28.1022 -19.9793
rtoes 33.2745
lfemur -14.8071 3.46159 -12.0498
ltibia 18.4256
lfoot -9.59599 20.8949
ltoes 31.4417
524
root -5.47018 16.755 -10.8623 3.17895 -81.797 -352.137
lowerback -9.63431 1.56369 -1.23667
upperback 1.23147 2.2946 -1.0057
thorax 6.69804 1.09582 -0.0100193
lowerneck -4.06329 10.5339 -3.68309
upperneck -1.88372 14.182 0.781785
head -0.241214 7.11267 0.920752
rclavicle -1.57785e-014 -7.25564e-015
rhumerus -30.3965 -26.0618 -74.7985
rradius 22.012
rwrist 37.6025
rhand -1.39668 -6.80865
rfingers 7.12502
rthumb 24.2519 -35.2949
lclavicle -1.57785e-014 -7.25564e-015
lhumerus -23.85 1.2557 92.3253
lradius 23.3308
lwrist -24.0373
lhand -13.6952 6.89804
lfingers 7.12502
lthumb 12.423 36.5089
rfemur -20.5741 -13.6036 18.1254
rtibia 24.4777
rfoot -28.6117 -20.3684
rtoes 34.3981
lfemur -15.04 4.28911 -12.8232
ltibia 18.7365
lfoot -11.6029 21.6764
ltoes 33.3551
525
root -5.46241 16.7392 -10.749 5.49507 -81.3626 -354.585
lowerback -9.80334 1.69718 -0.950105
upperback 1.19278 2.44849 -1.1324
thorax 6.77025 1.18367 -0.275597
lowerneck -4.02586 10.5333 -3.57057
upperneck -1.80488 14.1777 0.925839
head -0.225759 7.11009 0.947433
rclavicle -2.53202e-014 5.1684e-015
rhumerus -30.4019 -26.1441 -75.1665
rradius 22.2534
rwrist 37.3534
rhand -1.57165 -6.76835
rfingers 7.12502
rthumb 24.0842 -35.2769
lclavicle -2.53202e-014 5.1684e-015
lhumerus -23.8911 0.824173 92.2443
lradius 23.0467
lwrist -24.0402
lhand -13.5141 6.88
lfingers 7.12502
lthumb 12.5976 36.4802
rfemur -20.2702 -13.0926 17.8911
rtibia 24.4832
rfoot -29.1421 -20.8278
rtoes 35.2699
lfemur -15.1665 4.58317 -13.4764
ltibia 18.8031
lfoot -13.7156 22.4674
ltoes 33.8277
526
root -5.45318 16.7265 -10.6282 6.96349 -80.8092 -356.163
lowerback -9.99081 1.71274 -0.795666
upperback 1.14674 2.45692 -1.20571
thorax 6.83813 1.19424 -0.432828
lowerneck -3.96421 10.5539 -3.45221
upperneck -1.72998 14.199 0.88152
head -0.201402 7.11945 0.915954
rclavicle 9.31803e-015 3.77691e-015
rhumerus -30.3941 -25.7092 -75.605
rradius 22.5811
rwrist 36.8268
rhand -1.65284 -6.66276
rfingers 7.12502
rthumb 24.0063 -35.1816
lclavicle 9.31803e-015 3.77691e-015
lhumerus -23.9633 0.525532 92.1766
lradius 22.7108
lwrist -23.7935
lhand -13.4044 6.70038
lfingers 7.12502
lthumb 12.7033 36.294
rfemur -19.9694 -12.6913 17.527
rtibia 24.4725
rfoot -29.6649 -21.4369
rtoes 35.7226
lfemur -15.174 4.0627 -14.028
ltibia 18.6826
lfoot -15.805 23.1142
ltoes 35.6622
527
root -5.44396 16.7114 -10.5011 8.60217 -80.0995 -357.958
lowerback -10.1549 1.64668 -0.728378
upperback 1.11288 2.35544 -1.09875
thorax 6.89305 1.1446 -0.369916
lowerneck -3.82074 10.5828 -3.45872
upperneck -1.80282 14.2317 0.729748
head -0.236692 7.13567 0.860553
rclavicle 7.42958e-015 7.95139e-015
rhumerus -30.4604 -24.7191 -75.9503
rradius 23.0632
rwrist 35.7895
rhand -1.80326 -6.64693
rfingers 7.12502
rthumb 23.8621 -35.1847
lclavicle 7.42958e-015 7.95139e-015
lhumerus -24.0954 0.350573 92.2782
lradius 22.5056
lwrist -23.3628
lhand -13.6344 6.77693
lfingers 7.12502
lthumb 12.4817 36.3842
rfemur -19.5659 -12.3708 17.194
rtibia 24.437
rfoot -30.3078 -21.9902
rtoes 36.2596
lfemur -15.0244 3.03007 -14.2772
ltibia 18.4763
lfoot -17.5381 23.3179
ltoes 37.5885
528
root -5.4321 16.6907 -10.3719 11.3432 -79.2336 -360.812
lowerback -10.354 1.62874 -0.476192
upperback 1.06363 2.29109 -0.937461
thorax 6.95673 1.11918 -0.34731
lowerneck -3.76114 10.5449 -3.38172
upperneck -1.86014 14.1749 0.58974
head -0.246658 7.10665 0.802493
rclavicle -2.03754e-014 7.35503e-015
rhumerus -30.616 -24.2288 -76.179
rradius 23.502
rwrist 35.0204
rhand -2.0384 -6.62338
rfingers 7.12502
rthumb 23.6366 -35.1904
lclavicle -2.03754e-014 7.35503e-015
lhumerus -24.0569 0.662749 92.2193
lradius 22.1679
lwrist -23.5679
lhand -13.7451 6.85645
lfingers 7.12502
lthumb 12.3748 36.4702
rfemur -19.2046 -12.1391 17.1443
rtibia 24.394
rfoot -31.1493 -22.2774
rtoes 36.9595
lfemur -14.9274 2.01053 -14.103
ltibia 18.3364
lfoot -18.4157 22.9485
ltoes 37.5207
